<?xml version="1.0" encoding="UTF-8"?><svg id="Layer_1" xmlns="http://www.w3.org/2000/svg" viewBox="0 0 250.73 124.5"><defs><style>.cls-1{fill:#f7b58d;}.cls-1,.cls-2,.cls-3{stroke-width:0px;}.cls-2{fill:#a972ad;}.cls-3{fill:#fff;}</style></defs><path class="cls-3" d="m0,52.16l4.84-8.71c1.94,1.18,4.18,2.1,6.73,2.74,2.55.64,5.09.97,7.62.97,3.49,0,5.24-.94,5.24-2.82,0-.97-.49-1.69-1.45-2.18-.97-.48-2.58-.81-4.84-.97-5.05-.27-9.07-1.53-12.05-3.79-2.99-2.26-4.47-5.21-4.47-8.87,0-3.98,1.61-7.14,4.84-9.47s7.58-3.51,13.06-3.51c3.12,0,6.09.38,8.91,1.13,2.82.75,5.26,1.8,7.3,3.14l-4.92,8.47c-3.01-1.72-6.58-2.58-10.72-2.58s-6.13.96-6.13,2.9c0,.81.42,1.43,1.25,1.86s2.24.75,4.23.96c5.7.43,10.04,1.72,13.02,3.87,2.98,2.15,4.47,5.16,4.47,9.03,0,4.08-1.64,7.3-4.92,9.63-3.28,2.34-7.82,3.51-13.62,3.51-7.04,0-13.17-1.77-18.38-5.32Z"/><path class="cls-3" d="m83.69,16.61v39.83h-10.97l-.8-4.6c-1.51,1.77-3.35,3.13-5.52,4.07-2.17.94-4.55,1.41-7.14,1.41-4.89,0-8.79-1.61-11.69-4.84-2.9-3.22-4.35-7.69-4.35-13.38v-22.49h12.66v21.77c0,2.58.63,4.6,1.89,6.05,1.26,1.45,3,2.18,5.2,2.18,2.42,0,4.37-.85,5.84-2.54,1.48-1.7,2.22-3.88,2.22-6.57v-20.88h12.66Z"/><path class="cls-3" d="m128.11,18.42c2.9,1.75,5.16,4.19,6.77,7.34,1.61,3.14,2.42,6.73,2.42,10.76s-.81,7.62-2.42,10.76c-1.61,3.14-3.87,5.59-6.77,7.34-2.9,1.75-6.21,2.62-9.91,2.62-5.43,0-9.84-1.85-13.22-5.56l-.81,4.76h-10.96V0h12.66v20.4c3.33-3.06,7.44-4.6,12.34-4.6,3.71,0,7.01.87,9.91,2.62Zm-6.05,25.4c1.77-1.85,2.66-4.29,2.66-7.3s-.89-5.44-2.66-7.3c-1.77-1.86-4.06-2.78-6.85-2.78s-5.07.94-6.81,2.82c-1.75,1.88-2.62,4.3-2.62,7.26s.87,5.37,2.62,7.26c1.75,1.88,4.02,2.82,6.81,2.82s5.08-.93,6.85-2.78Z"/><path class="cls-2" d="m31.44,122.09c-3.12,1.56-6.64,2.34-10.56,2.34-4.35,0-7.79-1.22-10.32-3.67-2.53-2.45-3.79-6.38-3.79-11.81v-15.08H0v-10.08h6.77v-9.91l12.57-1.37v11.28h9.92v10.08h-9.92v15.08c0,1.61.4,2.81,1.21,3.59.81.78,1.91,1.17,3.31,1.17,1.56,0,3.09-.37,4.6-1.13l2.98,9.51Z"/><path class="cls-2" d="m65.22,83.91c1.83.67,3.41,1.65,4.76,2.94l-5.32,9.27c-1.13-.7-2.18-1.21-3.14-1.53-.97-.32-1.99-.49-3.06-.49-2.69,0-4.81.86-6.37,2.58-1.56,1.72-2.34,4.24-2.34,7.58v19.35h-12.66v-39.83h11.05l.97,5c2.58-3.92,6.13-5.89,10.64-5.89,1.83,0,3.65.34,5.48,1.01Z"/><path class="cls-2" d="m114.96,83.79v39.83h-10.96l-.81-4.76c-3.39,3.71-7.79,5.56-13.22,5.56-3.71,0-7-.87-9.88-2.62-2.87-1.75-5.12-4.19-6.73-7.34-1.61-3.15-2.42-6.73-2.42-10.76s.81-7.62,2.42-10.76c1.61-3.15,3.86-5.59,6.73-7.34,2.88-1.75,6.17-2.62,9.88-2.62,2.69,0,5.16.47,7.42,1.41s4.19,2.3,5.8,4.07l.81-4.68h10.96Zm-15.16,27.21c1.77-1.85,2.66-4.29,2.66-7.3s-.89-5.44-2.66-7.3c-1.77-1.86-4.06-2.78-6.85-2.78s-5.07.94-6.81,2.82c-1.75,1.88-2.62,4.3-2.62,7.26s.87,5.37,2.62,7.26c1.75,1.88,4.02,2.82,6.81,2.82s5.08-.93,6.85-2.78Z"/><path class="cls-2" d="m132.58,121.96c-3.31-1.69-5.86-4.1-7.66-7.21s-2.7-6.77-2.7-10.97.91-7.78,2.74-10.92c1.83-3.14,4.38-5.59,7.66-7.34s7.07-2.62,11.37-2.62c2.96,0,5.78.52,8.47,1.57,2.69,1.05,5.08,2.59,7.17,4.64l-7.01,7.66c-2.26-2.1-4.92-3.14-7.98-3.14-2.9,0-5.27.93-7.1,2.78-1.83,1.85-2.74,4.28-2.74,7.3s.9,5.44,2.7,7.3,4.18,2.78,7.14,2.78c3.28,0,6.07-1.15,8.38-3.47l7.17,7.58c-4.46,4.41-9.78,6.61-15.96,6.61-4.46,0-8.35-.85-11.65-2.54Z"/><path class="cls-2" d="m206.63,123.62h-15.64l-12.17-15.8v15.8h-12.58v-56.43h12.58v31.68l11.05-15.08h14.43l-14.35,18.87,16.69,20.96Z"/><path class="cls-2" d="m250.73,67.18v56.43h-10.96l-.81-4.76c-3.39,3.71-7.79,5.56-13.22,5.56-3.71,0-7-.87-9.88-2.62-2.87-1.75-5.12-4.19-6.73-7.34-1.61-3.15-2.42-6.73-2.42-10.76s.81-7.62,2.42-10.76c1.61-3.15,3.86-5.59,6.73-7.34,2.88-1.75,6.17-2.62,9.88-2.62,4.89,0,9,1.53,12.33,4.6v-20.4h12.66Zm-15.16,43.82c1.77-1.85,2.66-4.29,2.66-7.3s-.89-5.44-2.66-7.3c-1.77-1.86-4.06-2.78-6.85-2.78s-5.07.94-6.81,2.82c-1.75,1.88-2.62,4.3-2.62,7.26s.87,5.37,2.62,7.26c1.75,1.88,4.02,2.82,6.81,2.82s5.08-.93,6.85-2.78Z"/><rect class="cls-1" x="148.84" y="28.13" width="101.89" height="13.44"/></svg>